<svg xmlns="http://www.w3.org/2000/svg" viewBox="0 0 1440 900"><defs><style>.a{fill:#f2f2f2;}.b{opacity:0.06;}.c{fill:#d0d0d0;}.d{fill:#e3e3e3;}.e{fill:#d1d1d1;}.f{fill:#d3d3d3;}.g{fill:#d9d9d9;}.h{fill:#cecece;}.i{fill:#eaeaea;}.j{fill:#f4f4f4;}.k{fill:#d7d7d7;}.l{fill:#f1f1f1;}.m{fill:#f0f0f0;}.n{fill:#ededed;}.o{fill:#e4e4e4;}.p{fill:#d5d5d5;}.q{fill:#cfcfcf;}.r{fill:#dfdfdf;}.s{fill:#ececec;}.t{fill:#ebebeb;}.u{fill:#989898;}.v{fill:#e6e6e6;}.w{fill:#c7c7c7;}.x{fill:#d8d8d8;}.y{fill:#eee;}.z{fill:#e7e7e7;}.aa{fill:#e5e5e5;}.ab{fill:#c6c6c6;}.ac{fill:none;stroke:#f2f2f2;stroke-miterlimit:10;}.ad{fill:#b5b5b5;}.ae{fill:#797979;}.af{fill:#d2d2d2;}.ag{fill:#8c8c8c;}.ah{fill:#686868;}.ai{fill:#e9e9e9;}.aj{fill:#acacac;}.ak{fill:#bababa;}.al{fill:#a4a4a4;}.am{fill:#e8e8e8;}.an{fill:#9d9d9d;}.ao{fill:#a8a8a8;}.ap{fill:#707070;}.aq{fill:#a9a9a9;}.ar{fill:#8e8e8e;}.as{fill:#959595;}.at{fill:#6b6b6b;}.au{fill:#e1e1e1;}.av{fill:#ababab;}.aw{fill:#a3a3a3;}.ax{fill:#b6b6b6;}.ay{fill:#aeaeae;}.az{fill:#9c9c9c;}.ba{fill:#bbb;}.bb{fill:#b7b7b7;}.bc{fill:#7c7c7c;}.bd{fill:#bfbfbf;}.be{fill:#bdbdbd;}.bf{fill:#656565;}.bg{fill:#9e9e9e;}.bh{fill:#6a6a6a;}.bi{fill:#939393;}.bj{fill:#d4d4d4;}.bk{fill:#dcdcdc;}.bl{fill:#c1c1c1;}.bm{fill:#b2b2b2;}.bn{fill:#818181;}.bo{fill:#dbdbdb;}.bp{fill:#e2e2e2;}.bq{fill:#737373;}.br{fill:#8f8f8f;}.bs{fill:#b9b9b9;}.bt{fill:#b8b8b8;}.bu{fill:#afafaf;}.bv{fill:#dadada;}.bw{fill:#c2c2c2;}.bx{fill:#7f7f7f;}.by{fill:#cdcdcd;}.bz{fill:#6d6d6d;}.ca{fill:#8b8b8b;}.cb{fill:#8a8a8a;}.cc{fill:#b1b1b1;}.cd{fill:#b4b4b4;}.ce{fill:#9a9a9a;}</style></defs><title>Artboard 1</title><rect  width="1440" height="900"/><g class="b"><polygon class="c" points="1185.88 0 1270.59 81.82 1355.29 0 1185.88 0"/><polygon class="d" points="1440 81.82 1355.29 0 1270.59 81.82 1440 81.82"/><polygon class="e" points="1270.59 81.82 1185.88 0 1101.18 81.82 1270.59 81.82"/><polygon class="f" points="1016.47 0 1101.18 81.82 1185.88 0 1016.47 0"/><polygon class="g" points="1355.29 0 1440 81.82 1440 0 1355.29 0"/><polygon class="h" points="1101.18 81.82 1016.47 0 931.76 81.82 1101.18 81.82"/><polygon class="i" points="931.76 81.82 847.06 0 762.35 81.82 931.76 81.82"/><polygon class="j" points="677.65 0 762.35 81.82 847.06 0 677.65 0"/><polygon class="k" points="847.06 0 931.76 81.82 1016.47 0 847.06 0"/><polygon class="j" points="762.35 81.82 677.65 0 592.94 81.82 762.35 81.82"/><polygon class="l" points="592.94 81.82 508.24 0 423.53 81.82 592.94 81.82"/><polygon class="m" points="338.82 0 423.53 81.82 508.24 0 338.82 0"/><polygon class="n" points="508.24 0 592.94 81.82 677.65 0 508.24 0"/><polygon class="o" points="423.53 81.82 338.82 0 254.12 81.82 423.53 81.82"/><polygon class="p" points="254.12 81.82 169.41 0 84.71 81.82 254.12 81.82"/><polygon class="g" points="84.71 81.82 0 0 0 81.82 84.71 81.82"/><polygon class="q" points="0 0 84.71 81.82 169.41 0 0 0"/><polygon class="r" points="169.41 0 254.12 81.82 338.82 0 169.41 0"/><polygon class="s" points="1355.29 163.64 1270.59 81.82 1185.88 163.64 1355.29 163.64"/><polygon class="t" points="1185.88 163.64 1101.18 81.82 1016.47 163.64 1185.88 163.64"/><polygon class="o" points="931.76 81.82 1016.47 163.64 1101.18 81.82 931.76 81.82"/><polygon class="u" points="1101.18 81.82 1185.88 163.64 1270.59 81.82 1101.18 81.82"/><polygon class="k" points="1440 163.64 1440 81.82 1355.29 163.64 1440 163.64"/><polygon class="v" points="1270.59 81.82 1355.29 163.64 1440 81.82 1270.59 81.82"/><polygon class="t" points="1016.47 163.64 931.76 81.82 847.06 163.64 1016.47 163.64"/><polygon class="w" points="847.06 163.64 762.35 81.82 677.65 163.64 847.06 163.64"/><polygon class="w" points="592.94 81.82 677.65 163.64 762.35 81.82 592.94 81.82"/><polygon class="x" points="762.35 81.82 847.06 163.64 931.76 81.82 762.35 81.82"/><polygon class="j" points="677.65 163.64 592.94 81.82 508.24 163.64 677.65 163.64"/><polygon class="k" points="508.24 163.64 423.53 81.82 338.82 163.64 508.24 163.64"/><polygon class="p" points="254.12 81.82 338.82 163.64 423.53 81.82 254.12 81.82"/><polygon class="y" points="423.53 81.82 508.24 163.64 592.94 81.82 423.53 81.82"/><polygon class="w" points="338.82 163.64 254.12 81.82 169.41 163.64 338.82 163.64"/><polygon class="z" points="169.41 163.64 84.71 81.82 0 163.64 169.41 163.64"/><polygon class="aa" points="0 81.82 0 163.64 84.71 81.82 0 81.82"/><polygon class="ab" points="84.71 81.82 169.41 163.64 254.12 81.82 84.71 81.82"/><polygon class="ac" points="1270.59 245.46 1185.88 163.64 1101.18 245.46 1270.59 245.46"/><polygon class="l" points="1101.18 245.46 1016.47 163.64 931.76 245.46 1101.18 245.46"/><polygon class="s" points="847.06 163.64 931.76 245.46 1016.47 163.64 847.06 163.64"/><polygon class="ac" points="1016.47 163.64 1101.18 245.46 1185.88 163.64 1016.47 163.64"/><polygon class="t" points="1270.59 245.46 1185.88 163.64 1101.18 245.46 1270.59 245.46"/><polygon class="w" points="1016.47 163.64 1101.18 245.46 1185.88 163.64 1016.47 163.64"/><polygon class="ad" points="1440 245.46 1355.29 163.64 1270.59 245.46 1440 245.46"/><polygon class="ae" points="1185.88 163.64 1270.59 245.46 1355.29 163.64 1185.88 163.64"/><polygon class="af" points="1355.29 163.64 1440 245.46 1440 163.64 1355.29 163.64"/><polygon class="n" points="931.76 245.46 847.06 163.64 762.35 245.46 931.76 245.46"/><polygon class="ag" points="762.35 245.46 677.65 163.64 592.94 245.46 762.35 245.46"/><polygon class="ah" points="508.24 163.64 592.94 245.46 677.65 163.64 508.24 163.64"/><polygon class="ai" points="677.65 163.64 762.35 245.46 847.06 163.64 677.65 163.64"/><polygon class="w" points="592.94 245.46 508.24 163.64 423.53 245.46 592.94 245.46"/><polygon class="j" points="423.53 245.46 338.82 163.64 254.12 245.46 423.53 245.46"/><polygon class="n" points="169.41 163.64 254.12 245.46 338.82 163.64 169.41 163.64"/><polygon class="n" points="338.82 163.64 423.53 245.46 508.24 163.64 338.82 163.64"/><polygon class="aj" points="254.12 245.46 169.41 163.64 84.71 245.46 254.12 245.46"/><polygon class="c" points="84.71 245.46 0 163.64 0 245.46 84.71 245.46"/><polygon class="n" points="0 163.64 84.71 245.46 169.41 163.64 0 163.64"/><polygon class="v" points="1355.29 327.27 1270.59 245.46 1185.88 327.27 1355.29 327.27"/><polygon class="l" points="1101.18 245.46 1185.88 327.27 1270.59 245.46 1101.18 245.46"/><polygon class="ak" points="1440 327.27 1440 245.46 1355.29 327.27 1440 327.27"/><polygon class="d" points="1270.59 245.46 1355.29 327.27 1440 245.46 1270.59 245.46"/><polygon class="al" points="1185.88 327.27 1101.18 245.46 1016.47 327.27 1185.88 327.27"/><polygon class="n" points="1016.47 327.27 931.76 245.46 847.06 327.27 1016.47 327.27"/><polygon class="r" points="762.35 245.46 847.06 327.27 931.76 245.46 762.35 245.46"/><polygon class="l" points="931.76 245.46 1016.47 327.27 1101.18 245.46 931.76 245.46"/><polygon class="k" points="847.06 327.27 762.35 245.46 677.65 327.27 847.06 327.27"/><polygon class="m" points="677.65 327.27 592.94 245.46 508.24 327.27 677.65 327.27"/><polygon class="t" points="423.53 245.46 508.24 327.27 592.94 245.46 423.53 245.46"/><polygon class="aa" points="592.94 245.46 677.65 327.27 762.35 245.46 592.94 245.46"/><polygon class="am" points="508.24 327.27 423.53 245.46 338.82 327.27 508.24 327.27"/><polygon class="aj" points="338.82 327.27 254.12 245.46 169.41 327.27 338.82 327.27"/><polygon class="n" points="84.71 245.46 169.41 327.27 254.12 245.46 84.71 245.46"/><polygon class="v" points="254.12 245.46 338.82 327.27 423.53 245.46 254.12 245.46"/><polygon class="an" points="169.41 327.27 84.71 245.46 0 327.27 169.41 327.27"/><polygon class="ao" points="0 245.46 0 327.27 84.71 245.46 0 245.46"/><polygon class="ap" points="1016.47 327.27 1101.18 409.09 1185.88 327.27 1016.47 327.27"/><polygon class="aq" points="1270.59 409.09 1185.88 327.27 1101.18 409.09 1270.59 409.09"/><polygon class="d" points="1440 409.09 1355.29 327.27 1270.59 409.09 1440 409.09"/><polygon class="ar" points="1185.88 327.27 1270.59 409.09 1355.29 327.27 1185.88 327.27"/><polygon class="as" points="1355.29 327.27 1440 409.09 1440 327.27 1355.29 327.27"/><polygon class="at" points="1101.18 409.09 1016.47 327.27 931.76 409.09 1101.18 409.09"/><polygon class="o" points="931.76 409.09 847.06 327.27 762.35 409.09 931.76 409.09"/><polygon class="f" points="677.65 327.27 762.35 409.09 847.06 327.27 677.65 327.27"/><polygon class="r" points="847.06 327.27 931.76 409.09 1016.47 327.27 847.06 327.27"/><polygon class="au" points="762.35 409.09 677.65 327.27 592.94 409.09 762.35 409.09"/><polygon class="c" points="592.94 409.09 508.24 327.27 423.53 409.09 592.94 409.09"/><polygon class="ao" points="338.82 327.27 423.53 409.09 508.24 327.27 338.82 327.27"/><polygon class="o" points="508.24 327.27 592.94 409.09 677.65 327.27 508.24 327.27"/><polygon class="an" points="423.53 409.09 338.82 327.27 254.12 409.09 423.53 409.09"/><polygon class="av" points="254.12 409.09 169.41 327.27 84.71 409.09 254.12 409.09"/><polygon class="aw" points="0 327.27 84.71 409.09 169.41 327.27 0 327.27"/><polygon class="ax" points="169.41 327.27 254.12 409.09 338.82 327.27 169.41 327.27"/><polygon class="ay" points="84.71 409.09 0 327.27 0 409.09 84.71 409.09"/><polygon class="aa" points="1355.29 490.91 1270.59 409.09 1185.88 490.91 1355.29 490.91"/><polygon class="f" points="1101.18 409.09 1185.88 490.91 1270.59 409.09 1101.18 409.09"/><polygon class="az" points="1440 490.91 1440 409.09 1355.29 490.91 1440 490.91"/><polygon class="aq" points="1270.59 409.09 1355.29 490.91 1440 409.09 1270.59 409.09"/><polygon class="x" points="1185.88 490.91 1101.18 409.09 1016.47 490.91 1185.88 490.91"/><polygon class="ad" points="931.76 409.09 1016.47 490.91 1101.18 409.09 931.76 409.09"/><polygon class="ba" points="1016.47 490.91 931.76 409.09 847.06 490.91 1016.47 490.91"/><polygon class="ah" points="847.06 490.91 762.35 409.09 677.65 490.91 847.06 490.91"/><polygon class="ag" points="592.94 409.09 677.65 490.91 762.35 409.09 592.94 409.09"/><polygon class="o" points="762.35 409.09 847.06 490.91 931.76 409.09 762.35 409.09"/><polygon class="w" points="677.65 490.91 592.94 409.09 508.24 490.91 677.65 490.91"/><polygon class="g" points="508.24 490.91 423.53 409.09 338.82 490.91 508.24 490.91"/><polygon class="bb" points="254.12 409.09 338.82 490.91 423.53 409.09 254.12 409.09"/><polygon class="v" points="423.53 409.09 508.24 490.91 592.94 409.09 423.53 409.09"/><polygon class="bc" points="338.82 490.91 254.12 409.09 169.41 490.91 338.82 490.91"/><polygon class="bd" points="169.41 490.91 84.71 409.09 0 490.91 169.41 490.91"/><polygon class="f" points="0 409.09 0 490.91 84.71 409.09 0 409.09"/><polygon class="ae" points="84.71 409.09 169.41 490.91 254.12 409.09 84.71 409.09"/><polygon class="ai" points="1016.47 490.91 1101.18 572.73 1185.88 490.91 1016.47 490.91"/><polygon class="k" points="847.06 490.91 931.76 572.73 1016.47 490.91 847.06 490.91"/><polygon class="ac" points="1270.59 572.73 1185.88 490.91 1101.18 572.73 1270.59 572.73"/><polygon class="be" points="1270.59 572.73 1185.88 490.91 1101.18 572.73 1270.59 572.73"/><polygon class="bf" points="1440 572.73 1355.29 490.91 1270.59 572.73 1440 572.73"/><polygon class="bg" points="1185.88 490.91 1270.59 572.73 1355.29 490.91 1185.88 490.91"/><polygon class="bh" points="1355.29 490.91 1440 572.73 1440 490.91 1355.29 490.91"/><polygon class="bi" points="1101.18 572.73 1016.47 490.91 931.76 572.73 1101.18 572.73"/><polygon class="bj" points="931.76 572.73 847.06 490.91 762.35 572.73 931.76 572.73"/><polygon class="bd" points="762.35 572.73 677.65 490.91 592.94 572.73 762.35 572.73"/><polygon class="bd" points="508.24 490.91 592.94 572.73 677.65 490.91 508.24 490.91"/><polygon class="q" points="677.65 490.91 762.35 572.73 847.06 490.91 677.65 490.91"/><polygon class="am" points="592.94 572.73 508.24 490.91 423.53 572.73 592.94 572.73"/><polygon class="c" points="423.53 572.73 338.82 490.91 254.12 572.73 423.53 572.73"/><polygon class="bk" points="169.41 490.91 254.12 572.73 338.82 490.91 169.41 490.91"/><polygon class="y" points="338.82 490.91 423.53 572.73 508.24 490.91 338.82 490.91"/><polygon class="x" points="254.12 572.73 169.41 490.91 84.71 572.73 254.12 572.73"/><polygon class="av" points="84.71 572.73 0 490.91 0 572.73 84.71 572.73"/><polygon class="c" points="0 490.91 84.71 572.73 169.41 490.91 0 490.91"/><polygon class="bl" points="1355.29 654.54 1270.59 572.73 1185.88 654.54 1355.29 654.54"/><polygon class="aj" points="1101.18 572.73 1185.88 654.54 1270.59 572.73 1101.18 572.73"/><polygon class="e" points="1440 654.54 1440 572.73 1355.29 654.54 1440 654.54"/><polygon class="bm" points="1270.59 572.73 1355.29 654.54 1440 572.73 1270.59 572.73"/><polygon class="bn" points="1185.88 654.54 1101.18 572.73 1016.47 654.54 1185.88 654.54"/><polygon class="ai" points="931.76 572.73 1016.47 654.54 1101.18 572.73 931.76 572.73"/><polygon class="ba" points="1016.47 654.54 931.76 572.73 847.06 654.54 1016.47 654.54"/><polygon class="bo" points="762.35 572.73 847.06 654.54 931.76 572.73 762.35 572.73"/><polygon class="i" points="847.06 654.54 762.35 572.73 677.65 654.54 847.06 654.54"/><polygon class="bp" points="677.65 654.54 592.94 572.73 508.24 654.54 677.65 654.54"/><polygon class="av" points="423.53 572.73 508.24 654.54 592.94 572.73 423.53 572.73"/><polygon class="j" points="592.94 572.73 677.65 654.54 762.35 572.73 592.94 572.73"/><polygon class="bc" points="508.24 654.54 423.53 572.73 338.82 654.54 508.24 654.54"/><polygon class="bq" points="338.82 654.54 254.12 572.73 169.41 654.54 338.82 654.54"/><polygon class="i" points="84.71 572.73 169.41 654.54 254.12 572.73 84.71 572.73"/><polygon class="bp" points="254.12 572.73 338.82 654.54 423.53 572.73 254.12 572.73"/><polygon class="br" points="169.41 654.54 84.71 572.73 0 654.54 169.41 654.54"/><polygon class="an" points="0 572.73 0 654.54 84.71 572.73 0 572.73"/><polygon class="bs" points="1016.47 654.54 1101.18 736.36 1185.88 654.54 1016.47 654.54"/><polygon class="bp" points="847.06 654.54 931.76 736.36 1016.47 654.54 847.06 654.54"/><polygon class="u" points="1270.59 736.36 1185.88 654.54 1101.18 736.36 1270.59 736.36"/><polygon class="u" points="1270.59 736.36 1185.88 654.54 1101.18 736.36 1270.59 736.36"/><polygon class="bt" points="1440 736.36 1355.29 654.54 1270.59 736.36 1440 736.36"/><polygon class="an" points="1185.88 654.54 1270.59 736.36 1355.29 654.54 1185.88 654.54"/><polygon class="bu" points="1355.29 654.54 1440 736.36 1440 654.54 1355.29 654.54"/><polygon class="bu" points="1355.29 654.54 1440 736.36 1440 654.54 1355.29 654.54"/><polygon class="bv" points="1101.18 736.36 1016.47 654.54 931.76 736.36 1101.18 736.36"/><polygon class="bw" points="931.76 736.36 847.06 654.54 762.35 736.36 931.76 736.36"/><polygon class="bu" points="677.65 654.54 762.35 736.36 847.06 654.54 677.65 654.54"/><polygon class="i" points="762.35 736.36 677.65 654.54 592.94 736.36 762.35 736.36"/><polygon class="e" points="592.94 736.36 508.24 654.54 423.53 736.36 592.94 736.36"/><polygon class="bd" points="338.82 654.54 423.53 736.36 508.24 654.54 338.82 654.54"/><polygon class="bx" points="508.24 654.54 592.94 736.36 677.65 654.54 508.24 654.54"/><polygon class="ah" points="423.53 736.36 338.82 654.54 254.12 736.36 423.53 736.36"/><polygon class="f" points="254.12 736.36 169.41 654.54 84.71 736.36 254.12 736.36"/><polygon class="f" points="0 654.54 84.71 736.36 169.41 654.54 0 654.54"/><polygon class="bc" points="169.41 654.54 254.12 736.36 338.82 654.54 169.41 654.54"/><polygon class="by" points="84.71 736.36 0 654.54 0 736.36 84.71 736.36"/><polygon class="aw" points="1355.29 818.18 1270.59 736.36 1185.88 818.18 1355.29 818.18"/><polygon class="q" points="1101.18 736.36 1185.88 818.18 1270.59 736.36 1101.18 736.36"/><polygon class="bz" points="1440 818.18 1440 736.36 1355.29 818.18 1440 818.18"/><polygon class="u" points="1270.59 736.36 1355.29 818.18 1440 736.36 1270.59 736.36"/><polygon class="bm" points="1185.88 818.18 1101.18 736.36 1016.47 818.18 1185.88 818.18"/><polygon class="ca" points="931.76 736.36 1016.47 818.18 1101.18 736.36 931.76 736.36"/><polygon class="cb" points="1016.47 818.18 931.76 736.36 847.06 818.18 1016.47 818.18"/><polygon class="cc" points="762.35 736.36 847.06 818.18 931.76 736.36 762.35 736.36"/><polygon class="bt" points="847.06 818.18 762.35 736.36 677.65 818.18 847.06 818.18"/><polygon class="al" points="592.94 736.36 677.65 818.18 762.35 736.36 592.94 736.36"/><polygon class="g" points="677.65 818.18 592.94 736.36 508.24 818.18 677.65 818.18"/><polygon class="ba" points="508.24 818.18 423.53 736.36 338.82 818.18 508.24 818.18"/><polygon class="c" points="254.12 736.36 338.82 818.18 423.53 736.36 254.12 736.36"/><polygon class="p" points="423.53 736.36 508.24 818.18 592.94 736.36 423.53 736.36"/><polygon class="cd" points="338.82 818.18 254.12 736.36 169.41 818.18 338.82 818.18"/><polygon class="ce" points="169.41 818.18 84.71 736.36 0 818.18 169.41 818.18"/><polygon class="ce" points="0 736.36 0 818.18 84.71 736.36 0 736.36"/><polygon class="bg" points="84.71 736.36 169.41 818.18 254.12 736.36 84.71 736.36"/><polygon class="ca" points="1016.47 818.18 1101.18 900 1185.88 818.18 1016.47 818.18"/><polygon class="an" points="847.06 818.18 931.76 900 1016.47 818.18 847.06 818.18"/><polygon class="cc" points="1270.59 900 1185.88 818.18 1101.18 900 1270.59 900"/><polygon class="bp" points="1270.59 900 1185.88 818.18 1101.18 900 1270.59 900"/><polygon class="u" points="1440 900 1355.29 818.18 1270.59 900 1440 900"/><polygon class="q" points="1185.88 818.18 1270.59 900 1355.29 818.18 1185.88 818.18"/><polygon class="cc" points="1355.29 818.18 1440 900 1440 818.18 1355.29 818.18"/><polygon class="bp" points="1355.29 818.18 1440 900 1440 818.18 1355.29 818.18"/><polygon class="bs" points="1101.18 900 1016.47 818.18 931.76 900 1101.18 900"/><polygon class="bw" points="931.76 900 847.06 818.18 762.35 900 931.76 900"/><polygon class="al" points="677.65 818.18 762.35 900 847.06 818.18 677.65 818.18"/><polygon class="bt" points="762.35 900 677.65 818.18 592.94 900 762.35 900"/><polygon class="g" points="508.24 818.18 592.94 900 677.65 818.18 508.24 818.18"/><polygon class="al" points="592.94 900 508.24 818.18 423.53 900 592.94 900"/><polygon class="c" points="423.53 900 338.82 818.18 254.12 900 423.53 900"/><polygon class="bg" points="169.41 818.18 254.12 900 338.82 818.18 169.41 818.18"/><polygon class="bi" points="338.82 818.18 423.53 900 508.24 818.18 338.82 818.18"/><polygon class="cd" points="254.12 900 169.41 818.18 84.71 900 254.12 900"/><polygon class="an" points="84.71 900 0 818.18 0 900 84.71 900"/><polygon class="by" points="0 818.18 84.71 900 169.41 818.18 0 818.18"/></g></svg>