<svg xmlns="http://www.w3.org/2000/svg" viewBox="0 0 75 75"><defs><style>.a{fill:#3e3e3f;}</style></defs><title>dribbble</title><path class="a" d="M38.76,37.64c.25-.08.5-.14.72-.22-.44-1-.95-2.07-1.48-3.11a67.06,67.06,0,0,1-18.81,2.6,3.89,3.89,0,0,0,0,.59,18.29,18.29,0,0,0,4.7,12.24C28.86,40.83,38.76,37.64,38.76,37.64Z"/><path class="a" d="M36.49,31.49a110.16,110.16,0,0,0-6.82-10.57A18.42,18.42,0,0,0,19.55,33.73,69.44,69.44,0,0,0,36.49,31.49Z"/><path class="a" d="M40.63,40.49S29.76,44.29,26.23,52a3.85,3.85,0,0,0-.42-.3,18.4,18.4,0,0,0,18.85,2.74,77.58,77.58,0,0,0-3.92-13.93Z"/><path class="a" d="M49.6,23.75a18.14,18.14,0,0,0-12.1-4.59,18.8,18.8,0,0,0-4.33.53A90.36,90.36,0,0,1,40,30.37C47,27.8,49.55,23.83,49.6,23.75Z"/><path class="a" d="M37.5,2.5a35,35,0,1,0,35,35A35,35,0,0,0,37.5,2.5ZM37.5,59A21.47,21.47,0,1,1,59,37.5,21.48,21.48,0,0,1,37.5,59Z"/><path class="a" d="M44.18,39.6a81.61,81.61,0,0,1,3.58,13.11,18.39,18.39,0,0,0,7.85-12.3A27.07,27.07,0,0,0,44.18,39.6Z"/><path class="a" d="M41.44,33.11c.42.87.84,1.76,1.23,2.66.14.3.25.64.39.95a43.42,43.42,0,0,1,12.78.58,18.42,18.42,0,0,0-4.17-11.46C51.62,25.9,48.68,30.15,41.44,33.11Z"/></svg>