<svg xmlns="http://www.w3.org/2000/svg" viewBox="0 0 75 75"><title>codepen</title><polygon points="20.94 34.62 20.94 40.38 25.25 37.5 20.94 34.62"/><polygon points="22.32 43.59 35.78 52.57 35.78 44.55 28.33 39.58 22.32 43.59"/><polygon points="52.68 31.41 39.22 22.43 39.22 30.45 46.67 35.42 52.68 31.41"/><polygon points="35.78 30.45 35.78 22.43 22.32 31.41 28.33 35.42 35.78 30.45"/><polygon points="37.5 33.44 31.43 37.5 37.5 41.56 43.57 37.5 37.5 33.44"/><polygon points="39.22 44.55 39.22 52.57 52.68 43.59 46.67 39.58 39.22 44.55"/><path d="M37.5,2.5a35,35,0,1,0,35,35A35,35,0,0,0,37.5,2.5Zm20,41.09A1.74,1.74,0,0,1,56.74,45L38.46,57.21a1.73,1.73,0,0,1-1.92,0L18.26,45a1.74,1.74,0,0,1-.76-1.43V31.41A1.74,1.74,0,0,1,18.26,30L36.54,17.79a1.73,1.73,0,0,1,1.92,0L56.74,30a1.74,1.74,0,0,1,.76,1.43Z"/><polygon points="54.06 40.38 54.06 34.62 49.75 37.5 54.06 40.38"/></svg>
