<svg xmlns="http://www.w3.org/2000/svg" viewBox="0 0 75 75"><title>email</title><path  d="M37.5,2.5a35,35,0,1,0,35,35A35,35,0,0,0,37.5,2.5ZM58.07,50a3.69,3.69,0,0,1-3.67,3.68H20.6A3.69,3.69,0,0,1,16.93,50V31.76a13,13,0,0,0,2.31,2c3.82,2.59,7.67,5.19,11.42,7.92,1.93,1.42,4.31,3.17,6.82,3.17h0c2.51,0,4.89-1.75,6.82-3.17,3.75-2.71,7.6-5.33,11.44-7.92a13.58,13.58,0,0,0,2.29-2ZM54.15,31.3c-3.58,2.48-7.19,5-10.75,7.46-1.49,1-4,3.15-5.88,3.15h0c-1.86,0-4.39-2.11-5.88-3.15-3.56-2.5-7.17-5-10.73-7.46-1.63-1.1-3.94-3.7-3.94-5.79,0-2.25,1.21-4.18,3.67-4.18H54.4A3.7,3.7,0,0,1,58.07,25C58.07,27.58,56.17,29.9,54.15,31.3Z"/></svg>
