<svg xmlns="http://www.w3.org/2000/svg" viewBox="0 0 75 75"><title>github</title><path  d="M48.57,71.58c-1.77.32-2.37-.77-2.37-1.68V60.28c0-3.28-1.09-5.38-2.36-6.47,7.79-.87,16-3.83,16-17.27a13.48,13.48,0,0,0-3.6-9.39,12.65,12.65,0,0,0-.36-9.3c-2.92-.91-9.62,3.6-9.62,3.6a33,33,0,0,0-17.5,0s-6.7-4.51-9.66-3.6a12.78,12.78,0,0,0-.32,9.3,13.48,13.48,0,0,0-3.6,9.39c0,13.4,8.16,16.4,16,17.27a7.57,7.57,0,0,0-2.23,4.69c-2,.92-7.11,2.46-10.17-2.91A7.31,7.31,0,0,0,13.35,52c-3.42-.05-.23,2.14-.23,2.14,2.28,1,3.87,5.1,3.87,5.1C19,65.48,28.8,63.38,28.8,63.38c0,2.92,0,5.7,0,6.52s-.64,2-2.41,1.68a35,35,0,1,1,22.14,0Z"/></svg>
